<svg xmlns="http://www.w3.org/2000/svg" viewBox="0 0 1280 760" role="img" aria-labelledby="title desc">
  <title id="title">Primitive Dependency Recovery Framework</title>
  <desc id="desc">A clean Bauhaus-style research framework for primitive dependency recovery and certificate-guided service restoration.</desc>
  <defs>
    <style>
      .bg{fill:#f7f3e8}
      .paper{fill:#fffaf0}
      .black{fill:#111}
      .red{fill:#d93a31}
      .blue{fill:#2465ad}
      .yellow{fill:#f3c631}
      .stroke{stroke:#111;stroke-width:4;stroke-linecap:square;stroke-linejoin:miter}
      .thin{stroke:#111;stroke-width:2.5;stroke-linecap:square;stroke-linejoin:miter}
      .dash{stroke:#111;stroke-width:3;stroke-dasharray:10 9;fill:none}
      .title{font:800 42px "Times New Roman",Times,serif;fill:#111}
      .subtitle{font:500 18px "Times New Roman",Times,serif;fill:#333}
      .section{font:800 13px "Times New Roman",Times,serif;letter-spacing:2px;fill:#111}
      .label{font:800 22px "Times New Roman",Times,serif;fill:#111}
      .body{font:600 15px "Times New Roman",Times,serif;fill:#222}
      .small{font:700 13px "Times New Roman",Times,serif;fill:#222}
      .micro{font:800 11px "Times New Roman",Times,serif;letter-spacing:1.2px;fill:#111}
      .white{fill:#fff}
    </style>
    <marker id="arrow" markerWidth="12" markerHeight="12" refX="10" refY="6" orient="auto">
      <path d="M1,1 L11,6 L1,11 Z" fill="#111"/>
    </marker>
  </defs>

  <rect class="bg" width="1280" height="760"/>
  <rect class="black" x="0" y="0" width="1280" height="16"/>
  <rect class="blue" x="0" y="16" width="220" height="18"/>
  <rect class="yellow" x="220" y="16" width="260" height="18"/>
  <rect class="red" x="480" y="16" width="180" height="18"/>

  <circle class="red" cx="92" cy="94" r="36"/>
  <text class="title" x="152" y="86">Primitive Dependency Recovery</text>
  <text class="subtitle" x="152" y="118">Certificate-Guided Restoration For Critical Service Dependencies</text>
  <rect class="yellow stroke" x="1052" y="60" width="84" height="84"/>
  <circle class="blue" cx="1170" cy="104" r="43"/>
  <line class="stroke" x1="60" y1="152" x2="1220" y2="152"/>

  <text class="section" x="94" y="210">Problem Structure</text>
  <text class="section" x="496" y="210">Certificate Lift</text>
  <text class="section" x="910" y="210">Recovery Decision</text>

  <rect class="paper stroke" x="76" y="234" width="310" height="342"/>
  <circle class="blue" cx="156" cy="306" r="34"/>
  <circle class="yellow stroke" cx="274" cy="370" r="30"/>
  <circle class="yellow stroke" cx="170" cy="430" r="26"/>
  <circle class="yellow stroke" cx="286" cy="482" r="26"/>
  <line class="thin" x1="184" y1="324" x2="247" y2="354" marker-end="url(#arrow)"/>
  <path class="dash" d="M192 414 L250 392"/>
  <line class="thin" x1="193" y1="442" x2="260" y2="472" marker-end="url(#arrow)"/>
  <text class="label" x="102" y="536">Service Graph</text>
  <text class="body" x="102" y="562">Surviving Links + Terminals</text>
  <rect class="red" x="306" y="284" width="46" height="120"/>
  <text class="micro" x="312" y="430">Costly</text>
  <text class="micro" x="312" y="448">Arcs</text>

  <path class="stroke" d="M410 405 H470" marker-end="url(#arrow)"/>

  <rect class="paper stroke" x="490" y="234" width="300" height="342"/>
  <rect class="yellow stroke" x="560" y="282" width="160" height="174"/>
  <rect class="black" x="560" y="282" width="160" height="20"/>
  <rect class="blue" x="526" y="328" width="58" height="58"/>
  <circle class="red" cx="724" cy="354" r="31"/>
  <circle class="paper stroke" cx="640" cy="374" r="32"/>
  <rect class="black" x="600" y="420" width="82" height="8"/>
  <rect class="black" x="600" y="438" width="58" height="8"/>
  <rect class="paper stroke" x="548" y="452" width="184" height="36"/>
  <text class="micro" x="589" y="475">Coverage Unit</text>
  <text class="label" x="530" y="532">Recovery Certificate</text>
  <text class="body" x="530" y="558">Bundled Evidence + Model Loss</text>

  <path class="stroke" d="M814 405 H874" marker-end="url(#arrow)"/>

  <rect class="paper stroke" x="894" y="234" width="310" height="342"/>
  <circle class="yellow stroke" cx="970" cy="312" r="43"/>
  <text class="label" x="1040" y="306">FPT Exact</text>
  <text class="body" x="1040" y="332">Small Terminal Set</text>
  <rect class="blue" x="930" y="402" width="86" height="86"/>
  <text class="label" x="1040" y="432">Greedy Lift</text>
  <text class="body" x="1040" y="458">Bounded Loss</text>
  <rect class="red" x="930" y="520" width="86" height="34"/>
  <text class="body" x="1040" y="542">Recovery Plan</text>

  <rect class="black" x="76" y="628" width="1128" height="56"/>
  <text class="micro white" x="104" y="651">Research Field</text>
  <text class="small white" x="104" y="672">Directed Network Design / Certificate Lifting / Fixed-Parameter Recovery</text>
  <rect class="red" x="658" y="628" width="10" height="56"/>
  <text class="micro white" x="692" y="651">Application</text>
  <text class="small white" x="692" y="672">Cloud Restoration / Service Repair / Operational Resilience Planning</text>
</svg>
